<svg xmlns="http://www.w3.org/2000/svg" viewBox="0 0 400 400"><defs><style>.cls-1{fill:none;stroke:#000;stroke-width:4px;}</style></defs><title>Element 1</title><g id="Ebene_2" data-name="Ebene 2"><g id="Sidebar"><g id="Logo-2"><circle class="cls-1" cx="200" cy="200" r="198"/><path d="M79.8,131.6C67,131.6,58,140.9,58,153.5c0,12.4,9,21.6,21.8,21.6,13,0,22-9.2,22-21.6C101.8,140.9,92.8,131.6,79.8,131.6Zm0,40.2c-10.8,0-18.4-7.9-18.4-18.3,0-10.6,7.6-18.6,18.4-18.6,11,0,18.6,8,18.6,18.6C98.4,163.9,90.8,171.8,79.8,171.8Z"/><path d="M144.1,132c-6.2,0-9.5,3.9-11.7,9.6V140c0-5.3-2-8.1-6.7-8.1a10.12,10.12,0,0,0-6.3,2.1l.6,2.8a9,9,0,0,1,4.8-1.7c3,0,4.1,2.1,4.1,5.5v33.5h3.5V148.3c1.8-6.7,4.8-13,11.4-13,3.3,0,5.2,1,6.6,3.1l1.3-2.8C150.3,133.3,148,132,144.1,132Z"/><path d="M181.1,174.2a26.09,26.09,0,0,0,17.5,2l-.4-3.2a25.21,25.21,0,0,1-15.9-1.7c-11.5-5.4-13.3-14.7-9.6-23.5l32.1,15a23.65,23.65,0,0,0,3.2-5.1c3.9-8.5,2.2-18-9.2-23.3-12-5.6-23.6,0-28.6,10.8S167,167.6,181.1,174.2Zm16.4-36.9c9.4,4.4,10.6,12.2,7.6,18.7-.5,1-1.2,2-1.7,3l-29.3-13.7C178.3,137,187.6,132.7,197.5,137.3Z"/><path d="M250.9,135.4c9,0,13.2,6.6,13.2,15.3v16c0,5.2,2,8.1,6.7,8.1a11.58,11.58,0,0,0,6.3-2.1l-.7-2.8a8.39,8.39,0,0,1-4.7,1.8c-3,0-4.1-2.1-4.1-5.5v-16c0-10.3-5.2-18.2-15.9-18.2-7.3,0-12.9,3.4-15.7,9.2v-8.5l-3.5.1v41.3H236V146.9A15,15,0,0,1,250.9,135.4Z"/><path d="M316.1,175.1c13,0,22-9.2,22-21.6,0-12.6-9-21.9-22-21.9-12.8,0-21.8,9.3-21.8,21.9C294.3,165.9,303.3,175.1,316.1,175.1Zm0-40.2c11,0,18.6,8,18.6,18.6,0,10.4-7.6,18.3-18.6,18.3s-18.4-7.9-18.4-18.3C297.7,142.9,305.3,134.9,316.1,134.9Z"/><path d="M81.7,230c-6.2,0-9.5,3.9-11.7,9.6V238c0-5.3-2-8.1-6.7-8.1A10.12,10.12,0,0,0,57,232l.6,2.8a9,9,0,0,1,4.8-1.7c3,0,4.1,2.1,4.1,5.5v33.5H70V246.3c1.8-6.7,4.8-13,11.4-13,3.3,0,5.2,1,6.6,3.1l1.3-2.8C87.9,231.3,85.6,230,81.7,230Z"/><path d="M140,269.7c-3,0-4.1-2.1-4.1-5.5h-.1V230.7h-3.5V236a20.67,20.67,0,0,0-14.5-6c-12.4,0-20.5,9-20.5,21.6,0,12.4,8.2,21.2,20.5,21.2a20.87,20.87,0,0,0,14.7-6.2c.5,3.9,2.4,6.2,6.6,6.2a11.86,11.86,0,0,0,6.3-2.1l-.7-2.8A8.39,8.39,0,0,1,140,269.7Zm-7.5-6.2a19.73,19.73,0,0,1-13.9,6.2c-10.6,0-17.5-7.6-17.5-18.1,0-10.7,6.8-18.4,17.5-18.4a19.15,19.15,0,0,1,13.9,6.2Z"/><path d="M225.6,269.6c-3,0-4-2.1-4-5.5v-16c0-10.3-4.5-18.2-15.2-18.2a16.23,16.23,0,0,0-15.8,10.7c-2-6.7-6.3-10.7-14.5-10.7a15.77,15.77,0,0,0-15.1,9.6v-8.8h-3.5V272H161V245.3c1.6-6.5,6.4-12,14.2-12,9,0,12.6,6.4,12.6,15.2V272h3.5V245.4c1.5-6.5,6.4-12.1,14.1-12.1,9,0,12.7,6.6,12.7,15.3v16c0,5.2,1.9,8.1,6.6,8.1a12.19,12.19,0,0,0,6.4-2.1l-.8-2.8A8.66,8.66,0,0,1,225.6,269.6Z"/><path d="M269.9,232.3c-12-5.6-23.6,0-28.6,10.8s-3.2,22.4,10.9,29a26.09,26.09,0,0,0,17.5,2l-.4-3.2a25.21,25.21,0,0,1-15.9-1.7c-11.5-5.4-13.3-14.7-9.6-23.5l32.1,15a23.65,23.65,0,0,0,3.2-5.1C283,247.1,281.3,237.6,269.9,232.3Zm6.3,21.5c-.5,1.1-1.2,2.1-1.7,3l-29.3-13.7c4.2-8.3,13.5-12.6,23.4-8C278,239.5,279.2,247.3,276.2,253.8Z"/><path d="M338.5,267.9a8.39,8.39,0,0,1-4.7,1.8c-3,0-4.1-2.1-4.1-5.5v-16c0-10.3-5.2-18.2-15.9-18.2-7.3,0-12.9,3.4-15.7,9.2v-8.4h-3.5v41.3h3.5V244.9A14.9,14.9,0,0,1,313,233.4c9,0,13.2,6.6,13.2,15.3v16c0,5.2,2,8.1,6.7,8.1a11.58,11.58,0,0,0,6.3-2.1Z"/></g></g></g></svg>