<svg xmlns="http://www.w3.org/2000/svg" width="1415" height="1070" viewBox="0 0 1415 1070">
  <path id="Pattern" d="M-680.706,1122.5A118.059,118.059,0,0,1-575,1057.3a116.532,116.532,0,0,1-19.833,65.195Zm-110.461,0A116.532,116.532,0,0,1-811,1057.3c0-64.866,52.83-117.451,118-117.451,0,64.866-52.831,117.451-118,117.451A118.06,118.06,0,0,1-705.294,1122.5Zm-125.539,0A118.059,118.059,0,0,1-811,1057.3a116.532,116.532,0,0,1-19.833,65.195Zm-110.461,0A116.531,116.531,0,0,1-1047,1057.3c0-64.866,52.83-117.451,118-117.451,0,64.866-52.831,117.451-118,117.451A118.06,118.06,0,0,1-941.294,1122.5Zm-125.539,0A118.062,118.062,0,0,1-1047,1057.3a116.508,116.508,0,0,1-19.834,65.195Zm-109.46,0A116.509,116.509,0,0,1-1282,1057.3a118.061,118.061,0,0,1,105.705,65.195Zm-125.54,0A118.059,118.059,0,0,1-1282,1057.3a116.532,116.532,0,0,1-19.833,65.195Zm-110.461,0A116.532,116.532,0,0,1-1518,1057.3c0-64.866,52.83-117.451,118-117.451,0,64.866-52.831,117.451-118,117.451a118.06,118.06,0,0,1,105.706,65.195Zm-125.54,0A118.059,118.059,0,0,1-1518,1057.3a116.532,116.532,0,0,1-19.833,65.195Zm-110.461,0A116.532,116.532,0,0,1-1754,1057.3c0-64.866,52.83-117.451,118-117.451,0,64.866-52.831,117.451-118,117.451a118.06,118.06,0,0,1,105.706,65.195Zm-125.539,0A118.059,118.059,0,0,1-1754,1057.3a116.532,116.532,0,0,1-19.833,65.195Zm-110.461,0A116.532,116.532,0,0,1-1990,1057.3c0-64.866,52.83-117.451,118-117.451,0,64.866-52.831,117.451-118,117.451a118.06,118.06,0,0,1,105.706,65.195ZM-575,1057.3Zm0,0ZM-693,939.854c65.169,0,118,52.585,118,117.451C-640.17,1057.3-693,1004.72-693,939.854ZM-811,1057.3Zm0,0ZM-929,939.854c65.169,0,118,52.585,118,117.451C-876.17,1057.3-929,1004.72-929,939.854ZM-1047,1057.3Zm0,0Zm-117.5-106.567c-5.518,59.763-56.018,106.567-117.5,106.567,0-64.534,52.291-116.912,117-117.447v0h1v0c64.707.535,117,52.914,117,117.447C-1108.482,1057.3-1158.982,1010.5-1164.5,950.738ZM-1282,1057.3Zm0,0Zm0,0Zm0,0Zm-118-117.451c65.169,0,118,52.585,118,117.451C-1347.17,1057.3-1400,1004.72-1400,939.854ZM-1518,1057.3Zm0,0Zm-118-117.451c65.169,0,118,52.585,118,117.451C-1583.17,1057.3-1636,1004.72-1636,939.854ZM-1754,1057.3Zm0,0Zm-118-117.451c65.169,0,118,52.585,118,117.451C-1819.17,1057.3-1872,1004.72-1872,939.854ZM-575,822.4c0,64.867-52.831,117.451-118,117.451C-693,874.987-640.17,822.4-575,822.4Zm-236,0c0-64.866,52.83-117.451,118-117.451,0,64.866-52.831,117.451-118,117.451,65.169,0,118,52.585,118,117.451C-758.17,939.853-811,887.269-811,822.4Zm0,0c0,64.867-52.831,117.451-118,117.451C-929,874.987-876.17,822.4-811,822.4Zm-236,0c0-64.866,52.83-117.451,118-117.451,0,64.866-52.831,117.451-118,117.451,65.169,0,118,52.585,118,117.451C-994.17,939.853-1047,887.269-1047,822.4Zm-117.5,117.45h-.5v0c-64.709-.535-117-52.913-117-117.447,61.482,0,111.982,46.8,117.5,106.567,5.518-59.763,56.018-106.567,117.5-106.567,0,64.534-52.293,116.912-117,117.447v0ZM-1282,822.4c0,64.867-52.831,117.451-118,117.451C-1400,874.987-1347.17,822.4-1282,822.4Zm-236,0c0-64.866,52.83-117.451,118-117.451,0,64.866-52.831,117.451-118,117.451,65.169,0,118,52.585,118,117.451C-1465.169,939.853-1518,887.269-1518,822.4Zm0,0c0,64.867-52.831,117.451-118,117.451C-1636,874.987-1583.17,822.4-1518,822.4Zm-236,0c0-64.866,52.83-117.451,118-117.451,0,64.866-52.831,117.451-118,117.451,65.169,0,118,52.585,118,117.451C-1701.17,939.853-1754,887.269-1754,822.4Zm0,0c0,64.867-52.831,117.451-118,117.451C-1872,874.987-1819.17,822.4-1754,822.4Zm-236,0c0-64.866,52.83-117.451,118-117.451,0,64.866-52.831,117.451-118,117.451,65.169,0,118,52.585,118,117.451C-1937.17,939.853-1990,887.269-1990,822.4Zm1415,0Zm0,0ZM-693,704.951c65.169,0,118,52.585,118,117.451C-640.17,822.4-693,769.817-693,704.951ZM-811,822.4Zm0,0ZM-929,704.951c65.169,0,118,52.585,118,117.451C-876.17,822.4-929,769.817-929,704.951ZM-1047,822.4Zm0,0Zm-117.5-106.567C-1170.018,775.6-1220.518,822.4-1282,822.4c0-64.534,52.291-116.911,117-117.446v-.009c-64.709-.535-117-52.912-117-117.446,61.482,0,111.982,46.8,117.5,106.567C-1158.982,634.3-1108.482,587.5-1047,587.5c0,64.534-52.293,116.911-117,117.446v0h0v0c64.707.535,117,52.913,117,117.446C-1108.482,822.4-1158.982,775.6-1164.5,715.835ZM-1282,822.4Zm0,0Zm0,0Zm0,0Zm-118-117.451c65.169,0,118,52.585,118,117.451C-1347.17,822.4-1400,769.817-1400,704.951ZM-1518,822.4Zm0,0Zm-118-117.451c65.169,0,118,52.585,118,117.451C-1583.17,822.4-1636,769.817-1636,704.951ZM-1754,822.4Zm0,0Zm-118-117.451c65.169,0,118,52.585,118,117.451C-1819.17,822.4-1872,769.817-1872,704.951Zm1179,0Zm0,0Zm0,0c0-64.866,52.83-117.451,118-117.451,0,64.867-52.831,117.451-118,117.451ZM-811,587.5c0-64.866,52.83-117.451,118-117.451,0,64.866-52.831,117.451-118,117.451,65.169,0,118,52.585,118,117.451C-758.17,704.951-811,652.367-811,587.5ZM-929,704.951Zm0,0Zm0,0c0-64.866,52.83-117.451,118-117.451,0,64.867-52.831,117.451-118,117.451ZM-1047,587.5c0-64.866,52.83-117.451,118-117.451,0,64.866-52.831,117.451-118,117.451,65.169,0,118,52.585,118,117.451C-994.17,704.951-1047,652.367-1047,587.5Zm-353,117.451Zm0,0Zm0,0c0-64.866,52.83-117.451,118-117.451,0,64.867-52.831,117.451-118,117.451ZM-1518,587.5c0-64.866,52.83-117.451,118-117.451,0,64.866-52.831,117.451-118,117.451,65.169,0,118,52.585,118,117.451C-1465.169,704.951-1518,652.367-1518,587.5Zm-118,117.451Zm0,0Zm0,0c0-64.866,52.83-117.451,118-117.451,0,64.867-52.831,117.451-118,117.451ZM-1754,587.5c0-64.866,52.83-117.451,118-117.451,0,64.866-52.831,117.451-118,117.451,65.169,0,118,52.585,118,117.451C-1701.17,704.951-1754,652.367-1754,587.5Zm-118,117.451Zm0,0Zm0,0c0-64.866,52.83-117.451,118-117.451,0,64.867-52.831,117.451-118,117.451ZM-1990,587.5c0-64.866,52.83-117.451,118-117.451,0,64.866-52.831,117.451-118,117.451,65.169,0,118,52.585,118,117.451C-1937.17,704.951-1990,652.367-1990,587.5Zm1415,0Zm0,0ZM-693,470.049c65.169,0,118,52.585,118,117.451C-640.17,587.5-693,534.915-693,470.049ZM-811,587.5Zm0,0ZM-929,470.049c65.169,0,118,52.585,118,117.451C-876.17,587.5-929,534.915-929,470.049ZM-1047,587.5Zm0,0Zm-117.5-106.567C-1170.018,540.7-1220.518,587.5-1282,587.5c0-64.534,52.291-116.912,117-117.447v0h1v0c64.707.535,117,52.914,117,117.447C-1108.482,587.5-1158.982,540.7-1164.5,480.933ZM-1282,587.5Zm0,0Zm0,0Zm0,0Zm-118-117.451c65.169,0,118,52.585,118,117.451C-1347.17,587.5-1400,534.915-1400,470.049ZM-1518,587.5Zm0,0Zm-118-117.451c65.169,0,118,52.585,118,117.451C-1583.17,587.5-1636,534.915-1636,470.049ZM-1754,587.5Zm0,0Zm-118-117.451c65.169,0,118,52.585,118,117.451C-1819.17,587.5-1872,534.915-1872,470.049ZM-575,352.6c0,64.867-52.831,117.451-118,117.451C-693,405.182-640.17,352.6-575,352.6Zm-236,0c0-64.866,52.83-117.451,118-117.451,0,64.866-52.831,117.451-118,117.451,65.169,0,118,52.585,118,117.451C-758.17,470.048-811,417.464-811,352.6Zm0,0c0,64.867-52.831,117.451-118,117.451C-929,405.182-876.17,352.6-811,352.6Zm-236,0c0-64.866,52.83-117.451,118-117.451,0,64.866-52.831,117.451-118,117.451,65.169,0,118,52.585,118,117.451C-994.17,470.048-1047,417.464-1047,352.6Zm-117.5,117.45h-.5v0c-64.709-.535-117-52.913-117-117.447,61.482,0,111.982,46.8,117.5,106.568C-1158.982,399.4-1108.482,352.6-1047,352.6c0,64.534-52.292,116.912-117,117.447v0ZM-1282,352.6c0,64.867-52.831,117.451-118,117.451C-1400,405.182-1347.17,352.6-1282,352.6Zm-236,0c0-64.866,52.83-117.451,118-117.451,0,64.866-52.831,117.451-118,117.451,65.169,0,118,52.585,118,117.451C-1465.169,470.048-1518,417.464-1518,352.6Zm0,0c0,64.867-52.831,117.451-118,117.451C-1636,405.182-1583.17,352.6-1518,352.6Zm-236,0c0-64.866,52.83-117.451,118-117.451,0,64.866-52.831,117.451-118,117.451,65.169,0,118,52.585,118,117.451C-1701.17,470.048-1754,417.464-1754,352.6Zm0,0c0,64.867-52.831,117.451-118,117.451C-1872,405.182-1819.17,352.6-1754,352.6Zm-236,0c0-64.866,52.83-117.451,118-117.451,0,64.866-52.831,117.451-118,117.451,65.169,0,118,52.585,118,117.451C-1937.17,470.048-1990,417.464-1990,352.6Zm1415,0Zm0,0ZM-693,235.146c65.169,0,118,52.585,118,117.451C-640.17,352.6-693,300.012-693,235.146ZM-811,352.6Zm0,0ZM-929,235.146c65.169,0,118,52.585,118,117.451C-876.17,352.6-929,300.012-929,235.146ZM-1047,352.6Zm0,0ZM-1164.5,246.03c-5.518,59.763-56.018,106.567-117.5,106.567,0-64.533,52.291-116.911,117-117.447v-.009c-64.709-.535-117-52.912-117-117.446,61.482,0,111.982,46.8,117.5,106.567C-1158.982,164.5-1108.482,117.7-1047,117.7c0,64.534-52.292,116.911-117,117.446v0h-1l.5,0,.5,0v0c64.708.535,117,52.914,117,117.447C-1108.482,352.6-1158.982,305.794-1164.5,246.03ZM-1282,352.6Zm0,0Zm0,0Zm0,0Zm-118-117.451c65.169,0,118,52.585,118,117.451C-1347.17,352.6-1400,300.012-1400,235.146ZM-1518,352.6Zm0,0Zm-118-117.451c65.169,0,118,52.585,118,117.451C-1583.17,352.6-1636,300.012-1636,235.146ZM-1754,352.6Zm0,0Zm-118-117.451c65.169,0,118,52.585,118,117.451C-1819.17,352.6-1872,300.012-1872,235.146Zm1179,0Zm0,0Zm0,0C-693,170.28-640.17,117.7-575,117.7c0,64.867-52.831,117.451-118,117.451ZM-811,117.7a116.5,116.5,0,0,1,19.834-65.2h85.873A118.061,118.061,0,0,1-811,117.7c65.169,0,118,52.585,118,117.451C-758.17,235.146-811,182.562-811,117.7ZM-929,235.146Zm0,0Zm0,0C-929,170.28-876.17,117.7-811,117.7c0,64.867-52.831,117.451-118,117.451ZM-1047,117.7a116.5,116.5,0,0,1,19.834-65.2h85.873A118.061,118.061,0,0,1-1047,117.7c65.169,0,118,52.585,118,117.451C-994.17,235.146-1047,182.562-1047,117.7Zm-353,117.451Zm0,0Zm0,0c0-64.866,52.83-117.451,118-117.451,0,64.867-52.831,117.451-118,117.451ZM-1518,117.7a116.5,116.5,0,0,1,19.834-65.2h85.873A118.061,118.061,0,0,1-1518,117.7c65.169,0,118,52.585,118,117.451C-1465.169,235.146-1518,182.562-1518,117.7Zm-118,117.451Zm0,0Zm0,0c0-64.866,52.83-117.451,118-117.451,0,64.867-52.831,117.451-118,117.451ZM-1754,117.7a116.5,116.5,0,0,1,19.834-65.2h85.873A118.061,118.061,0,0,1-1754,117.7c65.169,0,118,52.585,118,117.451C-1701.17,235.146-1754,182.562-1754,117.7Zm-118,117.451Zm0,0Zm0,0c0-64.866,52.83-117.451,118-117.451,0,64.867-52.831,117.451-118,117.451ZM-1990,117.7a116.5,116.5,0,0,1,19.834-65.2h85.873A118.061,118.061,0,0,1-1990,117.7c65.169,0,118,52.585,118,117.451C-1937.17,235.146-1990,182.562-1990,117.7Zm1415,0Zm0,0ZM-680.707,52.5h85.873A116.5,116.5,0,0,1-575,117.7,118.06,118.06,0,0,1-680.707,52.5ZM-811,117.7Zm0,0ZM-916.707,52.5h85.873A116.5,116.5,0,0,1-811,117.7,118.06,118.06,0,0,1-916.707,52.5ZM-1047,117.7Zm0,0Zm-105.707-65.2h85.872A116.513,116.513,0,0,1-1047,117.7,118.063,118.063,0,0,1-1152.706,52.5ZM-1282,117.7Zm0,0Zm0,0Zm0,0Zm19.834-65.2h85.872A118.063,118.063,0,0,1-1282,117.7,116.514,116.514,0,0,1-1262.166,52.5Zm-125.541,0h85.873A116.5,116.5,0,0,1-1282,117.7,118.06,118.06,0,0,1-1387.706,52.5ZM-1518,117.7Zm0,0Zm-105.707-65.2h85.873A116.5,116.5,0,0,1-1518,117.7,118.06,118.06,0,0,1-1623.707,52.5ZM-1754,117.7Zm0,0Zm-105.707-65.2h85.873A116.5,116.5,0,0,1-1754,117.7,118.061,118.061,0,0,1-1859.707,52.5Z" transform="translate(1990 -52.5)" fill="rgba(255,204,1,0.1)"/>
</svg>
